<svg version="1.1" xmlns="http://www.w3.org/2000/svg" xmlns:xlink="http://www.w3.org/1999/xlink" width="43.41988" height="41.70548" viewBox="0,0,43.41988,41.70548"><g transform="translate(-289.85412,-163.55611)"><g stroke-miterlimit="10"><path d="M321.63876,189.29629c0,7.98897 -6.77945,14.46531 -15.14232,14.46531c-8.36287,0 -15.14232,-6.47634 -15.14232,-14.4653c0,-7.98897 6.77945,-14.4653 15.14232,-14.4653c8.36287,0 15.14232,6.47634 15.14232,14.46531z" fill="#ffffff" stroke="#000000" stroke-width="3" stroke-linecap="butt"/><path d="M297.81553,192.06016l4.97102,-6.01269l4.22296,5.96041" fill="none" stroke="#000000" stroke-width="2" stroke-linecap="round"/><path d="M310.64777,191.81135l4.97102,-6.01269l4.22296,5.96041" fill="none" stroke="#000000" stroke-width="2" stroke-linecap="round"/><path d="M315.3401,195.33047c0,0 -0.55466,2.85549 -2.75639,4.99291c-1.22083,1.18518 -3.71765,2.24696 -5.07531,2.24696c-1.69273,0 -4.41101,-0.90814 -5.76386,-2.50217c-1.68908,-1.99019 -1.82535,-4.75492 -1.82535,-4.75492z" fill="#ffffff" stroke="#000000" stroke-width="1" stroke-linecap="butt"/><text transform="translate(305.02219,170.85776) scale(0.16915,0.16915)" font-size="40" xml:space="preserve" fill="#000000" stroke="none" stroke-width="1" stroke-linecap="butt" font-family="Sans Serif" font-weight="normal" text-anchor="start"><tspan x="0" dy="0">click me!</tspan></text></g></g></svg>