<svg version="1.1" xmlns="http://www.w3.org/2000/svg" xmlns:xlink="http://www.w3.org/1999/xlink" width="166.54216" height="41.79987" viewBox="0,0,166.54216,41.79987"><g transform="translate(-289.98527,-163.62657)"><g stroke-miterlimit="10"><path d="M321.22046,189.72357c0,7.84403 -6.65645,14.20287 -14.86759,14.20287c-8.21114,0 -14.86759,-6.35884 -14.86759,-14.20286c0,-7.84403 6.65645,-14.20286 14.86759,-14.20286c8.21114,0 14.86759,6.35884 14.86759,14.20287z" fill="#ffffff" stroke="#000000" stroke-width="3" stroke-linecap="butt"/><path d="M298.01957,192.31961l4.88083,-5.9036l4.14634,5.85227" fill="none" stroke="#000000" stroke-width="2" stroke-linecap="round"/><path d="M310.619,192.07532l4.88083,-5.9036l4.14634,5.85227" fill="none" stroke="#000000" stroke-width="2" stroke-linecap="round"/><path d="M315.22619,195.53059c0,0 -0.5446,2.80368 -2.70638,4.90232c-1.19868,1.16368 -3.6502,2.20619 -4.98323,2.20619c-1.66202,0 -4.33098,-0.89166 -5.65929,-2.45677c-1.65844,-1.95408 -1.79223,-4.66865 -1.79223,-4.66865z" fill="#ffffff" stroke="#000000" stroke-width="1" stroke-linecap="butt"/><text transform="translate(302.29804,170.79574) scale(0.16608,0.16608)" font-size="40" xml:space="preserve" fill="#000000" stroke="none" stroke-width="1" stroke-linecap="butt" font-family="Sans Serif" font-weight="normal" text-anchor="start"><tspan x="0" dy="0">keep clicking!</tspan></text><text transform="translate(326.70864,191.10092) scale(0.30567,0.30567)" font-size="40" xml:space="preserve" fill="#000000" stroke="none" stroke-width="1" stroke-linecap="butt" font-family="Sans Serif" font-weight="normal" text-anchor="start"><tspan x="0" dy="0">thank you Ms. Genter!</tspan></text><text transform="translate(325.68544,200.54809) scale(0.19365,0.19365)" font-size="40" xml:space="preserve" fill="#000000" stroke="none" stroke-width="1" stroke-linecap="butt" font-family="Sans Serif" font-weight="normal" text-anchor="start"><tspan x="0" dy="0">and my little sister for watching</tspan></text></g></g></svg>