<svg version="1.1" xmlns="http://www.w3.org/2000/svg" xmlns:xlink="http://www.w3.org/1999/xlink" width="193.71208" height="40.69877" viewBox="0,0,193.71208,40.69877"><g transform="translate(-290.77718,-164.49077)"><g stroke-miterlimit="10"><path d="M321.19992,189.87473c0,7.62971 -6.47458,13.8148 -14.46137,13.8148c-7.98679,0 -14.46137,-6.1851 -14.46137,-13.8148c0,-7.62971 6.47458,-13.8148 14.46137,-13.8148c7.98679,0 14.46137,6.1851 14.46137,13.8148z" fill="#ffffff" stroke="#000000" stroke-width="3" stroke-linecap="butt"/><path d="M298.63294,192.39984l4.74747,-5.7423l4.03305,5.69237" fill="none" stroke="#000000" stroke-width="2" stroke-linecap="round"/><path d="M310.88812,192.16222l4.74747,-5.7423l4.03305,5.69237" fill="none" stroke="#000000" stroke-width="2" stroke-linecap="round"/><path d="M315.36943,195.52309c0,0 -0.52972,2.72708 -2.63244,4.76838c-1.16593,1.13188 -3.55047,2.14591 -4.84707,2.14591c-1.61661,0 -4.21265,-0.8673 -5.50466,-2.38965c-1.61312,-1.90069 -1.74326,-4.54109 -1.74326,-4.54109z" fill="#ffffff" stroke="#000000" stroke-width="1" stroke-linecap="butt"/><text transform="translate(302.79452,171.46406) scale(0.16154,0.16154)" font-size="40" xml:space="preserve" fill="#000000" stroke="none" stroke-width="1" stroke-linecap="butt" font-family="Sans Serif" font-weight="normal" text-anchor="start"><tspan x="0" dy="0">Okay!</tspan></text><text transform="translate(326.50995,191.45884) scale(0.29732,0.29732)" font-size="40" xml:space="preserve" fill="#000000" stroke="none" stroke-width="1" stroke-linecap="butt" font-family="Sans Serif" font-weight="normal" text-anchor="start"><tspan x="0" dy="0">made in Scratch/Turbowarp</tspan></text><text transform="translate(325.5429,200.40349) scale(0.18836,0.18836)" font-size="40" xml:space="preserve" fill="#000000" stroke="none" stroke-width="1" stroke-linecap="butt" font-family="Sans Serif" font-weight="normal" text-anchor="start"><tspan x="0" dy="0">music made in Beepbox (Slarmoobox)</tspan></text></g></g></svg>